<svg width="502" height="502" viewBox="0 0 502 502" fill="none" xmlns="http://www.w3.org/2000/svg">
<g clip-path="url(#clip0_197_1317)">
<path d="M60.6041 121.208C49.1101 121.208 39.7061 130.612 39.7061 142.106V324.963C39.7061 336.457 49.1101 345.861 60.6041 345.861H211.069V121.208H60.6041Z" fill="#40596B"/>
<path d="M150.465 501.551C124.343 501.551 102.4 483.788 96.1301 458.71L71.0521 361.534L66.8721 345.861H183.901L188.081 361.534L205.844 430.497C215.249 467.069 188.082 501.551 150.465 501.551Z" fill="#DADADA"/>
<path d="M20.898 141.061C9.404 141.061 0 150.465 0 161.959V305.11C0 316.604 9.404 326.008 20.898 326.008H39.706V141.061H20.898Z" fill="#D19B5B"/>
<path d="M462.89 0V467.069L447.216 459.755L211.069 345.861V121.208L447.216 7.314L462.89 0Z" fill="#DADADA"/>
<path d="M480.653 0H462.89V467.069H480.653C492.147 467.069 501.551 457.665 501.551 446.171V20.898C501.551 9.404 492.147 0 480.653 0Z" fill="#D19B5B"/>
<path d="M39.7062 141.061V326.008H24.0332V324.963V142.106V141.061H39.7062Z" fill="#BF8D52"/>
<path d="M462.89 0V467.069L447.216 459.755V7.314L462.89 0Z" fill="#E4EAEF"/>
<path d="M188.082 361.535H71.053L66.873 345.861H183.902L188.082 361.535Z" fill="#E4EAEF"/>
<path d="M141.061 171.363H39.7061V197.485H141.061V171.363Z" fill="#334A5E"/>
<path d="M141.061 220.473H39.7061V246.595H141.061V220.473Z" fill="#334A5E"/>
<path d="M141.061 270.629H39.7061V296.751H141.061V270.629Z" fill="#334A5E"/>
</g>
<defs>
<clipPath id="clip0_197_1317">
<rect width="501.551" height="501.551" fill="white"/>
</clipPath>
</defs>
</svg>
