<svg width="20" height="23" viewBox="0 0 20 23" fill="none" xmlns="http://www.w3.org/2000/svg">
<path d="M14.875 3.0625C16.8438 3.0625 18.4375 4.65625 18.4375 6.625V16.375C18.4375 18.3438 16.8438 19.9375 14.875 19.9375H5.125C3.15625 19.9375 1.5625 18.3438 1.5625 16.375V6.625C1.5625 4.65625 3.15625 3.0625 5.125 3.0625H14.875ZM14.875 1.5H5.125C2.3125 1.5 0 3.8125 0 6.625V16.375C0 19.1875 2.3125 21.5 5.125 21.5H14.875C17.6875 21.5 20 19.1875 20 16.375V6.625C20 3.8125 17.6875 1.5 14.875 1.5Z" fill="black"/>
<path d="M15.375 7.46875C16.0826 7.46875 16.6563 6.89512 16.6563 6.1875C16.6563 5.47989 16.0826 4.90625 15.375 4.90625C14.6674 4.90625 14.0938 5.47989 14.0938 6.1875C14.0938 6.89512 14.6674 7.46875 15.375 7.46875Z" fill="black"/>
<path d="M10 7.9375C11.9688 7.9375 13.5625 9.53125 13.5625 11.5C13.5625 13.4688 11.9688 15.0625 10 15.0625C8.03125 15.0625 6.4375 13.4688 6.4375 11.5C6.4375 9.53125 8.03125 7.9375 10 7.9375ZM10 6.375C7.15625 6.375 4.875 8.65625 4.875 11.5C4.875 14.3438 7.15625 16.625 10 16.625C12.8438 16.625 15.125 14.3438 15.125 11.5C15.125 8.65625 12.8438 6.375 10 6.375Z" fill="black"/>
</svg>
