<svg width="25" height="27" viewBox="0 0 25 27" fill="none" xmlns="http://www.w3.org/2000/svg">
<path d="M20.3711 4.125H4.72656C3.87207 4.125 3.125 4.74023 3.125 5.58496V21.2637C3.125 22.1133 3.87207 22.8701 4.72656 22.8701H20.3662C21.2256 22.8701 21.8701 22.1084 21.8701 21.2637V5.58496C21.875 4.74023 21.2256 4.125 20.3711 4.125ZM8.93555 19.75H6.25V11.4004H8.93555V19.75ZM7.68555 10.1309H7.66602C6.80664 10.1309 6.25 9.49121 6.25 8.69043C6.25 7.875 6.82129 7.25 7.7002 7.25C8.5791 7.25 9.11621 7.87012 9.13574 8.69043C9.13574 9.49121 8.5791 10.1309 7.68555 10.1309ZM18.75 19.75H16.0645V15.1846C16.0645 14.0908 15.6738 13.3438 14.7021 13.3438C13.96 13.3438 13.5205 13.8467 13.3252 14.335C13.252 14.5107 13.2324 14.75 13.2324 14.9941V19.75H10.5469V11.4004H13.2324V12.5625C13.623 12.0059 14.2334 11.2051 15.6543 11.2051C17.417 11.2051 18.75 12.3672 18.75 14.8721V19.75Z" fill="black"/>
</svg>
