<svg width="24" height="22" viewBox="0 0 24 22" fill="none" xmlns="http://www.w3.org/2000/svg">
<path d="M12.3867 4.125C15.1926 4.125 17.4871 4.17227 19.6098 4.2668H19.6699C20.6625 4.2668 21.4746 5.21211 21.4746 6.37656V6.42383L21.4789 6.47109C21.5777 7.93203 21.625 9.44883 21.625 10.9785C21.6293 12.5082 21.5777 14.025 21.4789 15.4859L21.4746 15.5332V15.5805C21.4746 16.1734 21.2727 16.7234 20.8988 17.1316C20.5637 17.5012 20.1254 17.7074 19.6699 17.7074H19.6012C17.3281 17.8148 14.9262 17.8707 12.4512 17.8707H11.9957H12H11.5316C9.04805 17.8707 6.6461 17.8148 4.39024 17.7117H4.32149C3.86602 17.7117 3.43203 17.5055 3.09688 17.1359C2.72735 16.7277 2.5211 16.1777 2.5211 15.5848V15.5375L2.5168 15.4902C2.41367 14.025 2.36641 12.5082 2.375 10.9914V10.9828C2.3707 9.46602 2.41797 7.95352 2.5168 6.48828L2.5211 6.44102V6.39375C2.5211 5.225 3.32891 4.27539 4.32149 4.27539H4.38164C6.50859 4.17656 8.80313 4.13359 11.609 4.13359H12.3867M12.3867 2.75H11.6133C9.13828 2.75 6.70625 2.78438 4.32578 2.8918C2.57266 2.8918 1.15039 4.45156 1.15039 6.38516C1.04297 7.92344 0.995705 9.45312 1 10.9871C0.995705 12.5211 1.03867 14.0508 1.1461 15.5848C1.1461 17.5184 2.56836 19.091 4.32149 19.091C6.67617 19.2027 9.07813 19.2543 11.5316 19.2543H12.4598C14.9133 19.2543 17.3152 19.2027 19.6742 19.091C21.4316 19.091 22.8539 17.5184 22.8539 15.5848C22.957 14.0508 23.0043 12.5168 23 10.9828C23.0043 9.44883 22.957 7.91914 22.8539 6.38086C22.8539 4.44727 21.4316 2.89609 19.6742 2.89609C17.2938 2.78438 14.866 2.75 12.3867 2.75Z" fill="#19191A"/>
<path d="M9.89453 15.2022V6.76318L16.125 10.9827L9.89453 15.2022Z" fill="#19191A"/>
</svg>
