<svg width="16" height="29" viewBox="0 0 16 29" fill="none" xmlns="http://www.w3.org/2000/svg">
<g clip-path="url(#clip0_306_13)">
<path d="M2.12132 0.706956C1.7308 0.316431 1.09763 0.316431 0.707107 0.706956C0.316582 1.09748 0.316582 1.73064 0.707107 2.12117L13.435 14.8491C13.8256 15.2396 14.4587 15.2396 14.8492 14.8491C15.2398 14.4586 15.2398 13.8254 14.8492 13.4349L2.12132 0.706956Z" fill="white"/>
<path d="M0.69616 26.6439C0.311777 27.0404 0.321656 27.6735 0.718226 28.0579C1.1148 28.4423 1.74788 28.4324 2.13227 28.0359L14.6601 15.1109C15.0444 14.7143 15.0346 14.0812 14.638 13.6969C14.2414 13.3125 13.6083 13.3223 13.2239 13.7189L0.69616 26.6439Z" fill="white"/>
</g>
<defs>
<clipPath id="clip0_306_13">
<rect width="16" height="29" fill="white"/>
</clipPath>
</defs>
</svg>
